<svg width="57" height="45" viewBox="0 0 57 45" fill="none" xmlns="http://www.w3.org/2000/svg">
<path d="M38.5175 13.3486H52.4689C53.5734 13.3486 54.4689 14.2441 54.4689 15.3486V18.8084C54.4689 19.913 53.5734 20.8084 52.4689 20.8084H42.9259C41.8134 20.8084 40.8649 21.746 41.196 22.8081C43.3313 29.6577 56.5033 25.2477 56.5033 34C56.5033 41.5954 51.9823 44.318 49.7217 44.544H36.124C35.0195 44.544 34.124 43.6486 34.124 42.544V39.7624C34.124 38.6579 35.0195 37.7624 36.124 37.7624H46.5033C47.6079 37.7624 48.5033 36.867 48.5033 35.7624V35.3871C48.5033 34.5529 47.9807 33.8064 47.2026 33.5057C36.6172 29.4158 34.124 26.6786 34.124 20.8084C34.124 16.2649 36.4728 14.1093 37.892 13.4675C38.0879 13.3789 38.3026 13.3486 38.5175 13.3486Z" fill="black"/>
<path fill-rule="evenodd" clip-rule="evenodd" d="M0.503418 0.141722V44.2222H9.31951V29.3026C16.5532 30.885 31.0207 30.3877 31.0207 15.7394C31.0207 -0.409807 20.4702 -0.205751 6.34809 0.0673825C4.45825 0.103934 2.50445 0.141722 0.503418 0.141722ZM24 15.7394C24 5.93096 14.213 5.82628 9.31951 7V22C10 23 24 25 24 15.7394Z" fill="black"/>
</svg>
