<svg width="274" height="274" viewBox="0 0 274 274" fill="none" xmlns="http://www.w3.org/2000/svg">
<path d="M122.928 237.269L128.897 238.286C129.041 238.311 129.108 238.404 129.096 238.568L129.151 273.423C129.161 273.556 129.102 273.612 128.974 273.59L123.438 272.647C123.31 272.625 123.241 272.548 123.231 272.414L123.871 249.614L116.829 271.323C116.775 271.446 116.668 271.494 116.507 271.466L112.055 270.708C111.926 270.686 111.857 270.608 111.847 270.474L112.439 247.667L105.445 269.384C105.391 269.506 105.3 269.557 105.171 269.535L99.6841 268.6C99.5236 268.573 99.4704 268.498 99.5243 268.375L111.166 235.513C111.193 235.451 111.251 235.403 111.339 235.369L111.448 235.313L117.416 236.33C117.513 236.346 117.579 236.44 117.616 236.612L117.129 254.732L122.646 237.469C122.69 237.311 122.783 237.244 122.928 237.269Z" fill="white"/>
<path d="M82.3913 222.764L96.6846 230.308C96.7997 230.369 96.8193 230.471 96.7433 230.615L80.6657 260.971C80.6049 261.086 80.5169 261.113 80.4018 261.053L66.1949 253.554C66.0797 253.493 66.0601 253.391 66.1361 253.247L68.7458 248.302C68.8066 248.187 68.8946 248.16 69.0097 248.221L78.078 253.007L81.7248 246.098L72.6565 241.312C72.5414 241.251 72.5142 241.163 72.575 241.048L75.1757 236.016C75.2365 235.901 75.3245 235.874 75.4396 235.934L84.551 240.744L88.6309 233.014L79.5195 228.205C79.4043 228.144 79.3847 228.042 79.4607 227.898L82.1274 222.845C82.1882 222.73 82.2762 222.703 82.3913 222.764Z" fill="white"/>
<path d="M67.5626 210.298C68.8755 211.539 69.7629 213.005 70.225 214.696C70.6752 216.376 70.6941 218.073 70.2818 219.789C69.8465 221.505 68.9804 223.049 67.6834 224.421L56.9311 235.725C55.6564 237.073 54.1973 238.001 52.5536 238.507C50.8987 239.026 49.2201 239.108 47.5176 238.753C45.7921 238.398 44.267 237.595 42.9423 236.343C41.5939 235.068 40.7009 233.608 40.2632 231.962C39.8136 230.305 39.8009 228.625 40.225 226.92C40.6261 225.217 41.4696 223.685 42.7554 222.324L44.3319 220.657C44.4213 220.562 44.5134 220.56 44.608 220.649L48.6886 224.506C48.7832 224.596 48.7858 224.688 48.6964 224.782L47.1199 226.45C46.3596 227.254 45.9657 228.192 45.9383 229.264C45.9108 230.335 46.2874 231.24 47.0681 231.978C47.9315 232.794 48.8734 233.125 49.8937 232.969C50.914 232.814 51.7932 232.346 52.5311 231.565L63.248 220.228C64.0865 219.341 64.5139 218.368 64.5302 217.308C64.5353 216.26 64.1652 215.384 63.4201 214.68C62.6394 213.942 61.6982 213.635 60.5964 213.758C59.4834 213.893 58.5635 214.344 57.8367 215.113L56.2434 216.799C56.154 216.893 56.062 216.896 55.9673 216.806L51.8513 212.916C51.7566 212.826 51.754 212.734 51.8435 212.639L53.4368 210.954C54.7226 209.594 56.2159 208.654 57.9168 208.134C59.6183 207.637 61.32 207.555 63.0218 207.887C64.7124 208.231 66.226 209.034 67.5626 210.298Z" fill="white"/>
<path d="M45.7089 182.36L54.114 196.165C54.1817 196.276 54.146 196.374 54.007 196.459L24.6833 214.256C24.5442 214.34 24.4324 214.313 24.3478 214.174L21.453 209.42C21.3683 209.281 21.3955 209.169 21.5345 209.084L45.8119 194.36L40.4539 185.56C40.3693 185.421 40.3965 185.309 40.5355 185.224L45.3734 182.279C45.5124 182.194 45.6242 182.221 45.7089 182.36Z" fill="white"/>
<path d="M39.7542 164.923C40.245 166.628 40.2596 168.326 39.798 170.017C39.3318 171.692 38.4976 173.177 37.2951 174.472C36.0726 175.756 34.5854 176.649 32.8336 177.154L17.5938 181.49C15.8108 182.004 14.0837 182.035 12.4128 181.585C10.7307 181.154 9.25237 180.343 7.97787 179.152C6.68773 177.965 5.7995 176.527 5.3132 174.838C4.80888 173.086 4.78647 171.391 5.24596 169.751C5.70095 168.096 6.53416 166.636 7.7456 165.373C8.9369 164.098 10.4162 163.207 12.1837 162.698L27.3964 158.267C29.1482 157.763 30.873 157.724 32.5707 158.15C34.2886 158.587 35.7904 159.391 37.076 160.562C38.3617 161.733 39.2544 163.187 39.7542 164.923ZM33.9593 166.591C33.6801 165.621 33.0459 164.889 32.0568 164.395C31.052 163.905 30.0569 163.802 29.0715 164.086L13.8587 168.516C12.7951 168.822 11.9926 169.418 11.4511 170.302C10.9096 171.186 10.7875 172.144 11.0846 173.177C11.3683 174.162 11.9712 174.903 12.8933 175.4C13.8154 175.896 14.8239 175.987 15.9188 175.672L31.1451 171.288C32.193 170.987 32.9988 170.374 33.5626 169.449C34.1107 168.529 34.243 167.577 33.9593 166.591Z" fill="white"/>
<path d="M35.1544 140.228L35.0327 145.891C35.0299 146.021 34.9471 146.084 34.7844 146.081L0.443827 145.244C0.313649 145.242 0.249959 145.175 0.252758 145.045L0.383977 138.943C0.386777 138.813 0.454315 138.7 0.586593 138.605L7.27502 134.183L0.782371 129.501C0.654293 129.401 0.591828 129.277 0.594977 129.131L0.726721 123.004C0.72987 122.858 0.796534 122.786 0.926712 122.789L35.2715 123.43C35.4342 123.433 35.5141 123.5 35.5113 123.63L35.3896 129.293C35.3868 129.423 35.304 129.486 35.1413 129.483L9.63344 128.983L17.136 134.395L9.40879 139.43L34.9145 140.027C35.0773 140.031 35.1572 140.098 35.1544 140.228Z" fill="white"/>
<path d="M42.6015 98.046L37.6211 113.422C37.581 113.545 37.4835 113.582 37.3287 113.532L4.66472 102.9C4.54085 102.86 4.49898 102.778 4.5391 102.654L9.48941 87.3718C9.52954 87.2479 9.62702 87.211 9.78186 87.2612L15.1006 88.984C15.2245 89.0241 15.2664 89.1061 15.2262 89.23L12.0665 98.9849L19.4988 101.392L22.6586 91.6374C22.6987 91.5136 22.7807 91.4717 22.9045 91.5118L28.308 93.2108C28.4319 93.2509 28.4738 93.3329 28.4336 93.4568L25.2588 103.258L33.5737 105.951L36.7486 96.1501C36.7887 96.0262 36.8862 95.9894 37.041 96.0395L42.4759 97.8C42.5998 97.8401 42.6416 97.9221 42.6015 98.046Z" fill="white"/>
<path d="M64.3414 65.6291L60.4729 69.7328C60.3724 69.8394 60.263 69.8369 60.1446 69.7253L39.3952 50.165L34.9405 54.8905C34.8289 55.0089 34.7138 55.0123 34.5954 54.9006L30.5607 51.0301C30.466 50.9408 30.4633 50.8487 30.5526 50.754L43.5816 36.9329C43.7044 36.8026 43.8132 36.7822 43.9079 36.8715L47.9761 40.7065C48.0945 40.8181 48.1091 40.9213 48.0198 41.0161L43.5149 45.7948L64.2978 65.3196C64.4162 65.4312 64.4308 65.5344 64.3414 65.6291Z" fill="white"/>
<path d="M84.2578 50.5021C82.7392 51.4192 81.1034 51.8746 79.3504 51.8685C77.6113 51.8539 75.9605 51.4343 74.3978 50.6097C72.8406 49.7627 71.5909 48.559 70.6485 46.9986L62.4997 33.4098C61.5406 31.8215 61.0613 30.162 61.062 28.4314C61.0403 26.6952 61.439 25.057 62.2581 23.5166C63.0688 21.9623 64.2264 20.7309 65.7312 19.8222C67.2917 18.8799 68.9233 18.4175 70.626 18.435C72.3427 18.4441 73.9685 18.8693 75.5033 19.7107C77.0437 20.5298 78.2892 21.7265 79.2399 23.3009L87.4723 36.8392C88.4147 38.3997 88.9009 40.055 88.9309 41.805C88.9555 43.5775 88.5694 45.2366 87.7727 46.7825C86.976 48.3283 85.8044 49.5682 84.2578 50.5021ZM81.1406 45.34C82.0044 44.8184 82.5465 44.0158 82.7667 42.9321C82.9785 41.8345 82.8194 40.8468 82.2893 39.9691L74.057 26.4308C73.4848 25.4833 72.7015 24.8631 71.707 24.57C70.7124 24.277 69.7554 24.4081 68.8358 24.9634C67.958 25.4934 67.3992 26.2682 67.1592 27.2877C66.9193 28.3073 67.0938 29.3047 67.6827 30.28L75.8733 43.8435C76.437 44.777 77.2385 45.3958 78.2777 45.6999C79.3086 45.99 80.2629 45.8701 81.1406 45.34Z" fill="white"/>
<path d="M127.218 36.2734C125.385 36.4305 123.685 36.1351 122.118 35.3873C120.568 34.6381 119.297 33.5301 118.305 32.0632C117.328 30.5787 116.758 28.8796 116.594 26.9661L116.396 24.6552C116.385 24.5255 116.444 24.4551 116.574 24.4439L122.217 23.9602C122.347 23.9491 122.419 24.0327 122.435 24.2111L122.626 26.449C122.731 27.6652 123.165 28.6326 123.929 29.3513C124.692 30.0537 125.616 30.3583 126.703 30.2652C127.708 30.179 128.54 29.6911 129.199 28.8015C129.856 27.8957 130.139 26.8995 130.046 25.813L127.923 1.05028C127.912 0.920552 127.971 0.850125 128.101 0.839004L133.695 0.359413C133.825 0.348292 133.897 0.423815 133.911 0.58598L136.078 25.2959C136.234 27.1121 135.94 28.8281 135.196 30.4437C134.438 32.077 133.368 33.4183 131.988 34.4678C130.608 35.5172 129.018 36.1191 127.218 36.2734Z" fill="white"/>
<path d="M155.56 37.6213C153.818 37.2842 152.299 36.526 151.002 35.3467C149.721 34.1704 148.777 32.7527 148.169 31.0934C147.581 29.4213 147.46 27.6903 147.807 25.9006L150.865 10.3537C151.217 8.53206 151.974 6.97919 153.134 5.69512C154.281 4.39197 155.675 3.4432 157.315 2.8488C158.959 2.23843 160.643 2.10022 162.369 2.43418C164.159 2.78051 165.68 3.53071 166.932 4.6848C168.2 5.84197 169.121 7.2471 169.697 8.90018C170.291 10.5404 170.414 12.2633 170.064 14.069L167.102 29.6344C166.756 31.4242 166.007 32.9786 164.857 34.2977C163.687 35.6297 162.289 36.6025 160.661 37.2159C159.034 37.8294 157.334 37.9645 155.56 37.6213ZM156.706 31.7008C157.696 31.8925 158.636 31.66 159.526 31.0033C160.419 30.3306 160.963 29.4909 161.158 28.4841L164.12 12.9187C164.33 11.8321 164.164 10.8468 163.623 9.96279C163.081 9.07878 162.283 8.53474 161.228 8.33065C160.221 8.13584 159.287 8.3364 158.426 8.93231C157.564 9.52822 157.026 10.3855 156.809 11.504L153.799 27.0602C153.592 28.1308 153.772 29.1272 154.339 30.0494C154.91 30.9555 155.699 31.506 156.706 31.7008Z" fill="white"/>
<path d="M183.623 46.8613L178.49 44.3C178.388 44.2491 178.366 44.1654 178.424 44.0489L184.811 31.3563L187.839 10.3032C187.868 10.1721 187.941 10.1356 188.057 10.1938L193.038 12.6788C193.184 12.7515 193.242 12.8533 193.213 12.9844L190.506 26.6674L199.876 16.3087C199.963 16.2067 200.065 16.1847 200.182 16.2429L205.206 18.7497C205.323 18.8078 205.337 18.8879 205.25 18.9899L190.272 33.8627L183.885 46.7737C183.827 46.8902 183.74 46.9194 183.623 46.8613Z" fill="white"/>
<path d="M214.838 72.0449L211.439 67.5757C211.34 67.4461 211.356 67.3321 211.485 67.2336L238.885 46.5153C238.989 46.4365 239.08 46.4489 239.159 46.5525L244.982 54.2086C246.835 56.644 247.553 59.1343 247.137 61.6795C246.744 64.2278 245.272 66.4725 242.72 68.4137C240.854 69.8326 238.948 70.7 237 71.0159C235.055 71.3091 233.254 71.1455 231.596 70.5252C229.938 69.9049 228.577 68.8952 227.513 67.4961L225.207 64.4648L215.181 72.0915C215.051 72.19 214.937 72.1745 214.838 72.0449ZM240.26 57.8002L237.916 54.7984L230.026 60.7993L232.332 63.8306C232.973 64.6726 233.931 65.0991 235.207 65.11C236.496 65.111 237.788 64.6188 239.084 63.6335C240.12 62.8452 240.757 61.9213 240.994 60.8617C241.244 59.7923 240.999 58.7718 240.26 57.8002Z" fill="white"/>
<path d="M230.873 100.61C230.242 98.9521 230.086 97.2612 230.406 95.5376C230.731 93.8292 231.439 92.2799 232.53 90.8898C233.641 89.509 235.049 88.4946 236.753 87.8463L251.579 82.2576C253.313 81.5978 255.032 81.4229 256.734 81.7329C258.446 82.0219 259.987 82.707 261.356 83.7882C262.74 84.8636 263.745 86.2228 264.37 87.8657C265.018 89.5695 265.182 91.2575 264.86 92.9297C264.544 94.6171 263.835 96.1407 262.733 97.5004C261.652 98.8695 260.252 99.8811 258.533 100.535L243.741 106.215C242.037 106.863 240.322 107.046 238.595 106.763C236.846 106.47 235.283 105.794 233.904 104.733C232.526 103.673 231.515 102.299 230.873 100.61ZM236.509 98.4659C236.868 99.4091 237.561 100.086 238.588 100.496C239.63 100.901 240.63 100.921 241.588 100.556L256.38 94.8762C257.414 94.4826 258.165 93.8228 258.631 92.8966C259.097 91.9705 259.139 91.0054 258.757 90.0014C258.392 89.043 257.73 88.3547 256.77 87.9364C255.809 87.518 254.797 87.5114 253.732 87.9166L238.923 93.5509C237.904 93.9387 237.152 94.6167 236.667 95.5848C236.197 96.5472 236.144 97.5075 236.509 98.4659Z" fill="white"/>
<path d="M237.457 124.821L237.051 119.171C237.041 119.041 237.118 118.97 237.28 118.959L271.549 116.592C271.679 116.583 271.749 116.643 271.758 116.773L272.483 126.854C272.613 128.656 272.294 130.343 271.526 131.916C270.757 133.489 269.667 134.775 268.254 135.774C266.842 136.79 265.202 137.364 263.336 137.499C262.118 137.586 261.001 137.479 259.984 137.177C258.966 136.875 258.099 136.496 257.381 136.042C256.664 135.604 256.129 135.194 255.775 134.812C253.907 136.757 251.626 137.827 248.932 138.021L238.708 138.805C238.545 138.817 238.458 138.741 238.447 138.579L238.04 132.93C238.031 132.8 238.075 132.731 238.172 132.724L248.497 131.982C249.699 131.895 250.707 131.398 251.523 130.491C252.339 129.584 252.703 128.513 252.614 127.28L252.377 123.992L237.715 124.998C237.552 125.01 237.466 124.95 237.457 124.821ZM266.517 127.283L266.209 122.997L258.368 123.561L258.676 127.847C258.75 128.87 259.197 129.752 260.017 130.492C260.838 131.249 261.801 131.588 262.905 131.508C263.96 131.432 264.841 130.977 265.548 130.143C266.271 129.308 266.594 128.355 266.517 127.283Z" fill="white"/>
<path d="M235.38 159.972L236.555 154.456C236.586 154.313 236.681 154.258 236.84 154.292L264.73 160.233L266.083 153.882C266.117 153.723 266.213 153.66 266.372 153.694L271.83 154.906C271.958 154.934 272.008 155.011 271.981 155.138L268.023 173.715C267.986 173.891 267.904 173.965 267.776 173.937L262.308 172.773C262.149 172.739 262.083 172.658 262.11 172.531L263.478 166.107L235.578 160.214C235.419 160.18 235.353 160.099 235.38 159.972Z" fill="white"/>
<path d="M228.209 180.444L230.784 175.454C230.859 175.309 230.969 175.274 231.113 175.349L261.593 191.191C261.708 191.251 261.736 191.338 261.677 191.454L254.331 205.686C254.256 205.83 254.161 205.873 254.045 205.813L249.034 203.227C248.918 203.167 248.89 203.079 248.95 202.963L253.653 193.852L246.754 190.291L242.051 199.403C241.991 199.518 241.889 199.539 241.745 199.464L236.689 196.91C236.573 196.85 236.553 196.748 236.627 196.603L241.33 187.491L228.314 180.773C228.169 180.698 228.134 180.588 228.209 180.444Z" fill="white"/>
<path d="M210.456 205.567C211.67 204.273 213.121 203.391 214.81 202.922C216.488 202.465 218.191 202.421 219.918 202.792C221.647 203.185 223.176 204.005 224.506 205.252L236.032 216.124C237.385 217.393 238.296 218.861 238.765 220.527C239.256 222.192 239.316 223.877 238.945 225.582C238.586 227.298 237.805 228.797 236.603 230.079C235.356 231.409 233.911 232.296 232.267 232.741C230.612 233.197 228.932 233.228 227.227 232.834C225.522 232.463 223.999 231.649 222.657 230.391L211.064 219.59C209.734 218.343 208.818 216.881 208.315 215.205C207.811 213.505 207.733 211.804 208.081 210.1C208.429 208.396 209.221 206.885 210.456 205.567ZM214.856 209.691C214.165 210.427 213.861 211.347 213.943 212.45C214.036 213.564 214.457 214.471 215.205 215.173L226.798 225.974C227.605 226.731 228.527 227.116 229.564 227.128C230.601 227.141 231.487 226.755 232.221 225.972C232.923 225.224 233.251 224.326 233.205 223.28C233.16 222.233 232.722 221.321 231.891 220.541L220.331 209.705C219.536 208.959 218.597 208.58 217.514 208.569C216.443 208.569 215.557 208.943 214.856 209.691Z" fill="white"/>
<path d="M182.643 227.5L196.412 219.038C196.523 218.97 196.621 219.005 196.707 219.144L214.625 248.394C214.71 248.532 214.683 248.644 214.545 248.73L209.802 251.644C209.664 251.729 209.552 251.703 209.466 251.564L194.642 227.348L185.864 232.742C185.725 232.827 185.613 232.8 185.528 232.662L182.563 227.836C182.477 227.698 182.504 227.586 182.643 227.5Z" fill="white"/>
<path d="M168.683 232.984L174.013 231.07C174.166 231.015 174.271 231.064 174.326 231.217L185.891 263.562C185.935 263.685 185.896 263.768 185.773 263.812L180.488 265.71C180.366 265.754 180.282 265.715 180.238 265.592L168.581 233.28C168.526 233.127 168.56 233.028 168.683 232.984Z" fill="white"/>
<path d="M149.35 236.856C151.11 236.638 152.79 236.889 154.388 237.609C155.97 238.331 157.306 239.387 158.397 240.777C159.474 242.185 160.125 243.793 160.349 245.602L162.253 261.332C162.481 263.174 162.242 264.884 161.537 266.465C160.849 268.059 159.817 269.392 158.441 270.465C157.068 271.554 155.508 272.207 153.764 272.423C151.955 272.648 150.277 272.405 148.729 271.695C147.165 270.987 145.854 269.936 144.795 268.542C143.722 267.167 143.072 265.566 142.846 263.741L140.846 248.023C140.621 246.214 140.852 244.504 141.538 242.894C142.238 241.265 143.266 239.907 144.624 238.821C145.981 237.734 147.557 237.079 149.35 236.856ZM150.092 242.841C149.091 242.965 148.269 243.477 147.626 244.377C146.985 245.293 146.728 246.26 146.854 247.277L148.854 262.995C148.991 264.094 149.453 264.979 150.242 265.652C151.031 266.325 151.958 266.595 153.024 266.463C154.042 266.337 154.868 265.857 155.503 265.024C156.137 264.191 156.384 263.209 156.244 262.078L154.292 246.354C154.158 245.272 153.678 244.38 152.853 243.679C152.03 242.994 151.11 242.714 150.092 242.841Z" fill="white"/>
</svg>
