<svg width="337" height="333" viewBox="0 0 337 333" fill="none" xmlns="http://www.w3.org/2000/svg">
<path d="M137.157 270.795L142.887 272.75C143.026 272.797 143.077 272.9 143.04 273.06L137.542 307.478C137.531 307.612 137.464 307.658 137.34 307.616L132.026 305.803C131.903 305.761 131.847 305.673 131.858 305.54L136.121 283.133L125.711 303.443C125.639 303.556 125.525 303.586 125.371 303.533L121.096 302.075C120.973 302.033 120.917 301.945 120.928 301.812L125.145 279.39L114.782 299.715C114.709 299.828 114.611 299.863 114.488 299.821L109.219 298.024C109.065 297.972 109.025 297.889 109.098 297.776L125.825 267.188C125.861 267.132 125.926 267.093 126.019 267.074L126.135 267.036L131.865 268.99C131.958 269.022 132.009 269.125 132.018 269.3L128.651 287.111L136.847 270.947C136.915 270.799 137.018 270.748 137.157 270.795Z" fill="black"/>
<path d="M99.2596 250.377L112.333 259.88C112.438 259.956 112.443 260.061 112.347 260.192L92.11 287.949C92.0334 288.054 91.9425 288.068 91.8371 287.992L78.8431 278.546C78.7378 278.47 78.7329 278.366 78.8286 278.234L82.116 273.712C82.1925 273.606 82.2835 273.592 82.3888 273.668L90.6829 279.698L95.2765 273.378L86.9824 267.349C86.8771 267.273 86.8627 267.182 86.9393 267.076L90.2302 262.466C90.3067 262.361 90.3977 262.346 90.503 262.423L98.8366 268.481L103.976 261.411L95.6421 255.353C95.5368 255.277 95.532 255.173 95.6277 255.041L98.9868 250.42C99.0634 250.315 99.1543 250.3 99.2596 250.377Z" fill="black"/>
<path d="M86.2331 236.077C87.3764 237.475 88.069 239.043 88.3109 240.779C88.5425 242.503 88.3441 244.189 87.7157 245.838C87.0644 247.484 86.0078 248.905 84.5459 250.1L72.4358 259.934C70.9991 261.109 69.4333 261.842 67.7382 262.134C66.0306 262.437 64.3553 262.303 62.7123 261.733C61.0463 261.161 59.6365 260.169 58.4829 258.757C57.3087 257.321 56.6098 255.758 56.3862 254.07C56.1523 252.37 56.3547 250.701 56.9935 249.065C57.6093 247.427 58.6418 246.015 60.091 244.831L61.868 243.378C61.9688 243.296 62.0604 243.305 62.1428 243.406L65.6963 247.754C65.7787 247.855 65.7695 247.946 65.6687 248.029L63.8918 249.481C63.0348 250.181 62.5242 251.061 62.3599 252.12C62.1956 253.179 62.4534 254.125 63.1332 254.957C63.8851 255.877 64.7769 256.325 65.8088 256.301C66.8406 256.278 67.7724 255.926 68.6041 255.246L80.6834 245.374C81.6285 244.601 82.177 243.69 82.3287 242.642C82.4678 241.603 82.2129 240.687 81.564 239.893C80.8842 239.061 79.99 238.636 78.8815 238.617C77.7603 238.608 76.7902 238.939 75.9711 239.608L74.1752 241.076C74.0744 241.158 73.9828 241.149 73.9004 241.048L70.316 236.663C70.2336 236.562 70.2428 236.47 70.3436 236.388L72.1394 234.92C73.5887 233.736 75.19 232.994 76.9434 232.696C78.6945 232.421 80.3928 232.557 82.0381 233.104C83.6709 233.662 85.0692 234.652 86.2331 236.077Z" fill="black"/>
<path d="M67.8709 205.741L74.6519 220.412C74.7066 220.53 74.66 220.623 74.5123 220.692L43.3551 235.039C43.2074 235.107 43.0994 235.068 43.0311 234.92L40.6956 229.867C40.6274 229.719 40.6671 229.611 40.8148 229.543L66.6089 217.674L62.2863 208.322C62.218 208.175 62.2577 208.067 62.4055 207.998L67.5469 205.622C67.6946 205.554 67.8027 205.593 67.8709 205.741Z" fill="black"/>
<path d="M63.7618 187.809C64.0807 189.554 63.9263 191.245 63.2988 192.882C62.6684 194.503 61.6906 195.898 60.3654 197.067C59.0212 198.222 57.4526 198.964 55.6593 199.291L40.0638 202.091C38.2386 202.424 36.517 202.284 34.8991 201.67C33.2681 201.074 31.8778 200.12 30.728 198.808C29.5623 197.499 28.8215 195.98 28.5056 194.251C28.1779 192.457 28.3243 190.768 28.9445 189.182C29.5619 187.58 30.5361 186.211 31.8671 185.074C33.1792 183.924 34.7399 183.184 36.5492 182.854L52.1271 179.958C53.9204 179.63 55.6405 179.763 57.2875 180.355C58.9534 180.961 60.3677 181.91 61.5306 183.204C62.6934 184.497 63.4371 186.032 63.7618 187.809ZM57.8297 188.893C57.6484 187.9 57.0901 187.109 56.155 186.519C55.2039 185.931 54.224 185.73 53.2153 185.914L37.6374 188.81C36.5486 189.009 35.6909 189.521 35.0641 190.347C34.4374 191.173 34.2206 192.114 34.4136 193.171C34.5979 194.18 35.1241 194.977 35.9923 195.563C36.8604 196.149 37.8549 196.34 38.9756 196.135L54.5624 193.287C55.6351 193.091 56.4979 192.561 57.1508 191.697C57.7877 190.837 58.014 189.902 57.8297 188.893Z" fill="black"/>
<path d="M61.4852 162.818L60.8924 168.451C60.8787 168.581 60.791 168.637 60.6291 168.62L26.4774 164.927C26.3479 164.914 26.29 164.842 26.3036 164.713L26.9425 158.643C26.9561 158.513 27.0328 158.407 27.1725 158.323L34.206 154.473L28.1257 149.267C28.0065 149.156 27.9545 149.028 27.9698 148.882L28.6112 142.788C28.6266 142.642 28.699 142.576 28.8285 142.59L63.0006 146.088C63.1625 146.105 63.2366 146.179 63.2229 146.308L62.6301 151.941C62.6164 152.071 62.5287 152.127 62.3668 152.11L36.9892 149.488L44.0151 155.505L35.8954 159.88L61.2629 162.599C61.4247 162.616 61.4989 162.689 61.4852 162.818Z" fill="black"/>
<path d="M72.0758 121.319L66.0672 136.323C66.0188 136.444 65.919 136.474 65.768 136.414L33.8976 123.598C33.7767 123.549 33.7405 123.465 33.7889 123.344L39.7612 108.431C39.8096 108.31 39.9094 108.28 40.0605 108.34L45.2506 110.419C45.3715 110.467 45.4077 110.552 45.3593 110.673L41.5472 120.192L48.7997 123.096L52.6118 113.577C52.6602 113.456 52.7449 113.42 52.8657 113.468L58.142 115.529C58.2629 115.577 58.2991 115.662 58.2507 115.783L54.4204 125.347L62.5342 128.596L66.3644 119.032C66.4129 118.911 66.5126 118.881 66.6637 118.942L71.9671 121.065C72.088 121.114 72.1242 121.199 72.0758 121.319Z" fill="black"/>
<path d="M95.4788 90.1195L91.4342 94.0497C91.3291 94.1518 91.2199 94.1444 91.1064 94.0277L71.2344 73.5767L66.5769 78.1024C66.4602 78.2158 66.3451 78.2142 66.2317 78.0974L62.3705 74.0538C62.2798 73.9604 62.2811 73.8683 62.3745 73.7776L75.9968 60.5409C76.1252 60.4161 76.2348 60.4004 76.3255 60.4938L80.2217 64.5035C80.3351 64.6202 80.3451 64.7239 80.2517 64.8147L75.5417 69.3914L95.4488 89.8083C95.5622 89.925 95.5722 90.0288 95.4788 90.1195Z" fill="black"/>
<path d="M115.911 75.7312C114.367 76.6035 112.718 77.011 110.966 76.9535C109.228 76.8881 107.59 76.4205 106.052 75.5506C104.521 74.6585 103.307 73.4188 102.41 71.8314L94.6621 58.0103C93.7498 56.3946 93.3193 54.7218 93.3705 52.9919C93.3996 51.2559 93.846 49.63 94.7097 48.1143C95.5655 46.5843 96.7587 45.3872 98.2893 44.5229C99.8767 43.6266 101.521 43.2121 103.223 43.2793C104.938 43.3386 106.551 43.8112 108.061 44.6971C109.576 45.5608 110.786 46.7935 111.691 48.395L119.524 62.1681C120.42 63.7554 120.858 65.4242 120.837 67.1744C120.809 68.9468 120.375 70.594 119.533 72.1159C118.692 73.6378 117.485 74.8429 115.911 75.7312ZM112.946 70.4802C113.825 69.9841 114.39 69.1976 114.642 68.1208C114.886 67.0299 114.756 66.038 114.252 65.1451L106.418 51.372C105.874 50.4083 105.109 49.7654 104.124 49.4434C103.138 49.1214 102.178 49.2245 101.242 49.7527C100.349 50.2568 99.7682 51.015 99.4985 52.027C99.2289 53.0391 99.3742 54.0412 99.9344 55.0333L107.725 68.8304C108.261 69.78 109.044 70.4219 110.074 70.7562C111.096 71.0764 112.053 70.9844 112.946 70.4802Z" fill="black"/>
<path d="M159.113 62.2424C157.28 62.391 155.581 62.0879 154.018 61.3329C152.471 60.5765 151.205 59.4626 150.22 57.9912C149.25 56.5022 148.687 54.8006 148.532 52.8863L148.345 50.5745C148.334 50.4448 148.394 50.3746 148.524 50.3641L154.169 49.9063C154.299 49.8958 154.371 49.9797 154.385 50.1582L154.567 52.3969C154.666 53.6136 155.095 54.5831 155.856 55.3052C156.616 56.0111 157.539 56.32 158.626 56.2318C159.631 56.1503 160.466 55.6662 161.129 54.7797C161.79 53.8769 162.077 52.882 161.989 51.7951L159.98 27.0229C159.97 26.8931 160.029 26.823 160.159 26.8124L165.756 26.3586C165.886 26.3481 165.957 26.4239 165.97 26.5861L168.024 51.3057C168.171 53.1227 167.869 54.8373 167.118 56.4495C166.352 58.0792 165.277 59.4156 163.892 60.4587C162.507 61.5018 160.914 62.0964 159.113 62.2424Z" fill="black"/>
<path d="M187.446 63.5172C185.701 63.1981 184.174 62.4556 182.865 61.2896C181.572 60.1266 180.613 58.7186 179.989 57.0657C179.383 55.3997 179.245 53.6701 179.572 51.8769L182.471 36.2994C182.804 34.4742 183.545 32.9136 184.692 31.6177C185.826 30.3028 187.21 29.3398 188.844 28.7285C190.481 28.1013 192.164 27.9458 193.893 28.2619C195.686 28.5898 197.214 29.3244 198.478 30.4655C199.758 31.6096 200.694 33.0052 201.287 34.6522C201.898 36.2862 202.038 38.0078 201.707 39.817L198.905 55.4121C198.577 57.2053 197.845 58.7673 196.708 60.0982C195.552 61.4422 194.164 62.4292 192.543 63.0594C190.922 63.6896 189.223 63.8422 187.446 63.5172ZM188.531 57.5853C189.523 57.7668 190.461 57.5246 191.344 56.8588C192.23 56.1769 192.765 55.3317 192.949 54.323L195.751 38.7279C195.95 37.6392 195.775 36.6557 195.224 35.7773C194.673 34.8989 193.869 34.3631 192.812 34.1698C191.804 33.9854 190.872 34.1955 190.017 34.8003C189.162 35.405 188.631 36.2678 188.427 37.3885L185.576 52.9748C185.38 54.0475 185.571 55.042 186.148 55.9582C186.728 56.8585 187.522 57.4008 188.531 57.5853Z" fill="black"/>
<path d="M215.658 72.2458L210.461 69.8131C210.358 69.7648 210.334 69.6817 210.39 69.5638L216.459 56.716L218.961 35.594C218.987 35.4623 219.059 35.4241 219.177 35.4793L224.218 37.8395C224.365 37.9085 224.426 38.0089 224.401 38.1406L222.035 51.8868L231.144 41.298C231.229 41.1939 231.33 41.1694 231.448 41.2246L236.534 43.6056C236.652 43.6608 236.668 43.7404 236.584 43.8446L221.981 59.0857L215.917 72.1517C215.862 72.2697 215.775 72.301 215.658 72.2458Z" fill="black"/>
<path d="M247.753 96.2581L244.137 91.9626C244.032 91.8381 244.042 91.7234 244.166 91.6186L270.506 69.5692C270.606 69.4853 270.697 69.4932 270.781 69.5928L276.977 76.9511C278.947 79.2919 279.788 81.7436 279.499 84.3062C279.233 86.8708 277.873 89.1857 275.42 91.2508C273.628 92.7604 271.766 93.7211 269.836 94.1331C267.909 94.5222 266.102 94.4479 264.415 93.9105C262.728 93.373 261.319 92.432 260.187 91.0873L257.734 88.1739L248.097 96.2876C247.973 96.3924 247.858 96.3826 247.753 96.2581ZM272.438 80.7722L269.948 77.8902L262.366 84.2742L264.819 87.1877C265.5 87.997 266.478 88.3755 267.753 88.3232C269.041 88.2604 270.307 87.7048 271.552 86.6565C272.548 85.8179 273.138 84.8636 273.323 83.7936C273.519 82.7131 273.225 81.706 272.438 80.7722Z" fill="black"/>
<path d="M265.36 123.867C264.623 122.254 264.358 120.576 264.564 118.836C264.778 117.11 265.384 115.518 266.382 114.06C267.402 112.61 268.741 111.506 270.399 110.749L284.831 104.209C286.519 103.438 288.222 103.152 289.941 103.351C291.669 103.528 293.25 104.112 294.687 105.102C296.138 106.085 297.229 107.376 297.959 108.975C298.717 110.633 298.989 112.307 298.777 113.997C298.571 115.701 297.963 117.268 296.951 118.696C295.961 120.132 294.63 121.233 292.957 121.997L278.565 128.625C276.907 129.383 275.207 129.676 273.465 129.506C271.701 129.327 270.097 128.754 268.653 127.785C267.208 126.817 266.111 125.511 265.36 123.867ZM270.845 121.362C271.264 122.28 272 122.91 273.051 123.253C274.117 123.589 275.116 123.544 276.049 123.118L290.441 116.49C291.448 116.03 292.154 115.323 292.559 114.368C292.964 113.414 292.943 112.448 292.496 111.471C292.07 110.538 291.365 109.894 290.379 109.539C289.394 109.184 288.383 109.243 287.347 109.717L272.935 116.3C271.943 116.753 271.236 117.479 270.815 118.476C270.409 119.467 270.419 120.429 270.845 121.362Z" fill="black"/>
<path d="M273.645 147.525L272.785 141.926C272.765 141.798 272.836 141.721 272.997 141.696L306.964 136.576C307.092 136.556 307.167 136.611 307.186 136.739L308.721 146.73C308.996 148.515 308.813 150.223 308.175 151.853C307.536 153.482 306.552 154.852 305.224 155.962C303.899 157.087 302.311 157.792 300.461 158.077C299.255 158.262 298.132 158.245 297.094 158.026C296.056 157.807 295.161 157.5 294.408 157.105C293.658 156.726 293.092 156.36 292.708 156.007C291.004 158.097 288.816 159.347 286.146 159.757L276.018 161.363C275.858 161.388 275.765 161.32 275.74 161.159L274.88 155.56C274.86 155.432 274.898 155.36 274.995 155.345L285.226 153.773C286.417 153.59 287.382 153.014 288.122 152.044C288.863 151.074 289.139 149.977 288.951 148.755L288.45 145.497L273.916 147.681C273.755 147.706 273.665 147.654 273.645 147.525ZM302.809 147.638L302.157 143.391L294.387 144.585L295.039 148.832C295.195 149.845 295.711 150.688 296.589 151.36C297.468 152.048 298.455 152.309 299.549 152.14C300.595 151.98 301.436 151.455 302.074 150.567C302.727 149.676 302.972 148.7 302.809 147.638Z" fill="black"/>
<path d="M274.655 182.71L275.297 177.107C275.314 176.961 275.403 176.898 275.565 176.916L303.895 180.162L304.634 173.71C304.653 173.549 304.743 173.477 304.904 173.495L310.453 174.18C310.583 174.195 310.64 174.267 310.625 174.397L308.463 193.267C308.443 193.445 308.368 193.527 308.239 193.512L302.684 192.876C302.522 192.857 302.449 192.783 302.464 192.654L303.211 186.129L274.875 182.932C274.714 182.913 274.64 182.839 274.655 182.71Z" fill="black"/>
<path d="M269.625 203.784L271.636 198.541C271.695 198.389 271.8 198.342 271.952 198.401L303.988 210.796C304.11 210.842 304.147 210.927 304.101 211.048L298.364 226.001C298.306 226.153 298.216 226.206 298.094 226.159L292.829 224.139C292.707 224.092 292.67 224.008 292.716 223.887L296.389 214.313L289.141 211.532L285.468 221.106C285.421 221.227 285.322 221.259 285.17 221.201L279.864 219.218C279.743 219.171 279.711 219.072 279.769 218.92L283.442 209.346L269.766 204.099C269.614 204.041 269.567 203.936 269.625 203.784Z" fill="black"/>
<path d="M254.927 230.792C255.969 229.357 257.299 228.301 258.917 227.625C260.524 226.962 262.209 226.706 263.969 226.858C265.733 227.033 267.352 227.656 268.827 228.727L281.619 238.077C283.121 239.167 284.208 240.51 284.88 242.105C285.575 243.696 285.845 245.36 285.689 247.098C285.547 248.845 284.959 250.43 283.927 251.852C282.855 253.327 281.532 254.387 279.956 255.033C278.371 255.693 276.708 255.933 274.967 255.755C273.229 255.599 271.616 254.981 270.128 253.901L257.279 244.63C255.804 243.558 254.712 242.222 254.004 240.622C253.292 238.999 253.002 237.32 253.135 235.586C253.268 233.852 253.865 232.254 254.927 230.792ZM259.806 234.335C259.213 235.152 259.026 236.102 259.245 237.186C259.476 238.28 260.007 239.128 260.837 239.73L273.686 249.001C274.582 249.652 275.545 249.919 276.575 249.802C277.605 249.685 278.436 249.192 279.067 248.323C279.669 247.493 279.883 246.562 279.708 245.529C279.532 244.497 278.983 243.646 278.062 242.976L265.241 233.666C264.359 233.025 263.38 232.767 262.304 232.891C261.241 233.024 260.409 233.506 259.806 234.335Z" fill="black"/>
<path d="M230.296 256.234L242.756 245.941C242.857 245.858 242.959 245.879 243.062 246.005L264.871 272.481C264.974 272.607 264.963 272.721 264.838 272.825L260.546 276.37C260.421 276.474 260.306 276.463 260.203 276.337L242.157 254.416L234.214 260.977C234.089 261.081 233.974 261.07 233.87 260.945L230.263 256.578C230.16 256.452 230.17 256.338 230.296 256.234Z" fill="black"/>
<path d="M217.325 263.714L222.309 261.021C222.452 260.944 222.562 260.977 222.639 261.12L238.923 291.366C238.985 291.48 238.959 291.569 238.844 291.631L233.904 294.3C233.789 294.361 233.701 294.335 233.639 294.22L217.269 264.021C217.192 263.878 217.211 263.775 217.325 263.714Z" fill="black"/>
<path d="M198.853 270.555C200.555 270.055 202.253 270.031 203.946 270.483C205.624 270.94 207.114 271.766 208.415 272.961C209.706 274.176 210.608 275.659 211.122 277.407L215.543 292.623C216.066 294.403 216.108 296.13 215.666 297.803C215.245 299.488 214.443 300.971 213.259 302.252C212.079 303.548 210.646 304.445 208.96 304.94C207.211 305.454 205.515 305.486 203.873 305.036C202.215 304.59 200.751 303.765 199.481 302.561C198.2 301.377 197.3 299.902 196.781 298.138L192.266 282.95C191.752 281.201 191.703 279.476 192.12 277.776C192.547 276.056 193.343 274.55 194.507 273.258C195.671 271.965 197.119 271.065 198.853 270.555ZM200.553 276.341C199.585 276.625 198.857 277.263 198.368 278.255C197.883 279.263 197.786 280.259 198.075 281.242L202.59 296.43C202.902 297.492 203.502 298.291 204.389 298.828C205.276 299.364 206.235 299.481 207.266 299.178C208.25 298.889 208.987 298.282 209.479 297.357C209.97 296.432 210.056 295.423 209.734 294.33L205.266 279.129C204.959 278.082 204.341 277.28 203.413 276.721C202.49 276.178 201.537 276.051 200.553 276.341Z" fill="black"/>
</svg>
