<svg width="754" height="555" viewBox="0 0 754 555" fill="none" xmlns="http://www.w3.org/2000/svg">
<path d="M377 0L378.973 249.788L416.407 1.52017L382.898 250.092L455.383 6.06403L386.757 250.696L493.499 13.5818L390.51 251.593L530.34 23.9911L394.115 252.775L565.5 37.1779L397.533 254.227L598.595 52.9978L400.725 255.934L629.262 71.2773L403.658 257.878L657.166 91.8163L406.298 260.036L681.999 114.39L408.618 262.386L703.492 138.75L410.591 264.902L721.407 164.631L412.196 267.555L735.548 191.748L413.415 270.318L745.762 219.805L414.236 273.159L751.935 248.493L414.648 276.048L754 277.5L414.648 278.952L751.935 306.507L414.236 281.841L745.762 335.195L413.415 284.682L735.548 363.252L412.196 287.445L721.407 390.369L410.591 290.098L703.492 416.25L408.618 292.614L681.999 440.61L406.298 294.964L657.166 463.184L403.658 297.122L629.262 483.723L400.725 299.066L598.595 502.002L397.533 300.773L565.5 517.822L394.115 302.225L530.34 531.009L390.51 303.407L493.499 541.418L386.757 304.304L455.383 548.936L382.898 304.908L416.407 553.48L378.973 305.212L377 555L375.027 305.212L337.593 553.48L371.102 304.908L298.617 548.936L367.243 304.304L260.501 541.418L363.49 303.407L223.66 531.009L359.885 302.225L188.5 517.822L356.467 300.773L155.405 502.002L353.275 299.066L124.738 483.723L350.342 297.122L96.8344 463.184L347.702 294.964L72.0006 440.61L345.382 292.614L50.5084 416.25L343.409 290.098L32.5934 390.369L341.804 287.445L18.4517 363.252L340.585 284.682L8.23834 335.195L339.764 281.841L2.06525 306.507L339.352 278.952L0 277.5L339.352 276.048L2.06525 248.493L339.764 273.159L8.23834 219.805L340.585 270.318L18.4517 191.748L341.804 267.555L32.5934 164.631L343.409 264.902L50.5084 138.75L345.382 262.386L72.0006 114.39L347.702 260.036L96.8344 91.8163L350.342 257.878L124.738 71.2773L353.275 255.934L155.405 52.9978L356.467 254.227L188.5 37.1779L359.885 252.775L223.66 23.9911L363.49 251.593L260.501 13.5818L367.243 250.696L298.617 6.06403L371.102 250.092L337.593 1.52017L375.027 249.788L377 0Z" fill="#72DE2F" fill-opacity="0.3"/>
</svg>
