<svg width="20" height="20" viewBox="0 0 20 20" fill="none" xmlns="http://www.w3.org/2000/svg">
<path d="M8.01804 3.96392C8.01769 5.36714 8.3856 6.74589 9.08501 7.96238C9.78443 9.17888 10.7908 10.1905 12.0037 10.8962C13.2166 11.6019 14.5934 11.977 15.9966 11.9839C17.3998 11.9908 18.7802 11.6293 20 10.9356C19.5179 16.021 15.2343 20 10.0226 20C4.4871 20 0 15.5129 0 9.97745C0 4.76572 3.97895 0.482085 9.06439 0C8.3764 1.20765 8.01572 2.57404 8.01804 3.96392ZM2.00451 9.97745C2.00451 12.104 2.84927 14.1434 4.35294 15.6471C5.85661 17.1507 7.89603 17.9955 10.0226 17.9955C11.4392 17.9954 12.8306 17.6203 14.0553 16.9082C15.28 16.1961 16.2943 15.1725 16.9952 13.9414C16.6785 13.9714 16.3578 13.9865 16.0361 13.9865C10.5006 13.9865 6.01353 9.49937 6.01353 3.96392C6.01353 3.6422 6.02856 3.32248 6.05863 3.00476C4.82751 3.70566 3.80389 4.72001 3.09181 5.9447C2.37974 7.1694 2.00459 8.56079 2.00451 9.97745Z" fill="black"/>
</svg>
