<svg width="30" height="30" viewBox="0 0 30 30" fill="none" xmlns="http://www.w3.org/2000/svg">
<path d="M14.018 7.96392C14.0177 9.36714 14.3856 10.7459 15.085 11.9624C15.7844 13.1789 16.7908 14.1905 18.0037 14.8962C19.2166 15.6019 20.5934 15.977 21.9966 15.9839C23.3998 15.9908 24.7802 15.6293 26 14.9356C25.5179 20.021 21.2343 24 16.0226 24C10.4871 24 6 19.5129 6 13.9774C6 8.76572 9.97895 4.48208 15.0644 4C14.3764 5.20765 14.0157 6.57404 14.018 7.96392ZM8.00451 13.9774C8.00451 16.104 8.84927 18.1434 10.3529 19.6471C11.8566 21.1507 13.896 21.9955 16.0226 21.9955C17.4392 21.9954 18.8306 21.6203 20.0553 20.9082C21.28 20.1961 22.2943 19.1725 22.9952 17.9414C22.6785 17.9714 22.3578 17.9865 22.0361 17.9865C16.5006 17.9865 12.0135 13.4994 12.0135 7.96392C12.0135 7.6422 12.0286 7.32248 12.0586 7.00476C10.8275 7.70566 9.80389 8.72001 9.09181 9.9447C8.37974 11.1694 8.00459 12.5608 8.00451 13.9774Z" fill="black"/>
</svg>
